<svg width="1000" height="500"><rect width="1000" height="500" fill="#ccc"></rect><circle r="120.01592330601719" cx="40.160579550234665" cy="69.82431816567436" fill="#2db27d" opacity="0.5"></circle><circle r="97.90573633667005" cx="40.160579550234665" cy="69.82431816567436" fill="#2eb37c" opacity="0.5"></circle><circle r="105.73739812076637" cx="40.160579550234665" cy="69.82431816567436" fill="#1f988b" opacity="0.5"></circle><circle r="39.718611616917784" cx="40.160579550234665" cy="69.82431816567436" fill="#1f978b" opacity="0.5"></circle><circle r="48.937692650433064" cx="40.160579550234665" cy="69.82431816567436" fill="#1f948c" opacity="0.5"></circle><circle r="78.09018700753579" cx="40.160579550234665" cy="69.82431816567436" fill="#21918c" opacity="0.5"></circle><circle r="294.0814770989404" cx="93.88613386148559" cy="202.55730280569873" fill="#38b977" opacity="0.5"></circle><circle r="92.70978221027885" cx="93.88613386148559" cy="202.55730280569873" fill="#9bd93c" opacity="0.5"></circle><circle r="213.59204096802767" cx="93.88613386148559" cy="202.55730280569873" fill="#1fa287" opacity="0.5"></circle><circle r="454.3061871040938" cx="93.88613386148559" cy="202.55730280569873" fill="#25ab82" opacity="0.5"></circle><circle r="281.1207248004532" cx="93.88613386148559" cy="202.55730280569873" fill="#46c06f" opacity="0.5"></circle><circle r="517.7468882818105" cx="93.88613386148559" cy="202.55730280569873" fill="#67cc5c" opacity="0.5"></circle><circle r="237.32975588369857" cx="93.88613386148559" cy="202.55730280569873" fill="#90d743" opacity="0.5"></circle><circle r="496.6407585423266" cx="93.88613386148559" cy="202.55730280569873" fill="#5cc863" opacity="0.5"></circle><circle r="458.3917905847609" cx="93.88613386148559" cy="202.55730280569873" fill="#1f9f88" opacity="0.5"></circle><circle r="481.3882218548223" cx="93.88613386148559" cy="202.55730280569873" fill="#58c765" opacity="0.5"></circle><circle r="19.053194180121736" cx="93.88613386148559" cy="202.55730280569873" fill="#eae51a" opacity="0.5"></circle><circle r="150.69809835529333" cx="93.88613386148559" cy="202.55730280569873" fill="#7ad151" opacity="0.5"></circle><circle r="338.6251895406684" cx="93.88613386148559" cy="202.55730280569873" fill="#24aa83" opacity="0.5"></circle><circle r="142.10804237297526" cx="93.88613386148559" cy="202.55730280569873" fill="#d8e219" opacity="0.5"></circle><circle r="80.33598912503334" cx="93.88613386148559" cy="202.55730280569873" fill="#dae319" opacity="0.5"></circle><circle r="214.2591409601275" cx="93.88613386148559" cy="202.55730280569873" fill="#fde725" opacity="0.5"></circle><circle r="165.69101856299943" cx="93.88613386148559" cy="202.55730280569873" fill="#cde11d" opacity="0.5"></circle><circle r="88.93334223017746" cx="93.88613386148559" cy="202.55730280569873" fill="#7fd34e" opacity="0.5"></circle><circle r="472.0126954535046" cx="93.88613386148559" cy="202.55730280569873" fill="#98d83e" opacity="0.5"></circle><circle r="371.1375192048241" cx="93.88613386148559" cy="202.55730280569873" fill="#3dbc74" opacity="0.5"></circle><circle r="184.52163587736135" cx="93.88613386148559" cy="202.55730280569873" fill="#1e9b8a" opacity="0.5"></circle><circle r="531.014423680833" cx="93.88613386148559" cy="202.55730280569873" fill="#1f958b" opacity="0.5"></circle><circle r="96.62747654610126" cx="536.6339673111027" cy="133.6673947764766" fill="#26828e" opacity="0.5"></circle><circle r="97.35009080335082" cx="536.6339673111027" cy="133.6673947764766" fill="#228b8d" opacity="0.5"></circle><circle r="47.01097857315233" cx="536.6339673111027" cy="133.6673947764766" fill="#277f8e" opacity="0.5"></circle><circle r="62.87786221765168" cx="536.6339673111027" cy="133.6673947764766" fill="#25848e" opacity="0.5"></circle><circle r="830.8845181965428" cx="708.7016807171773" cy="40.7274359358375" fill="#a2da37" opacity="0.5"></circle><circle r="788.8707589967029" cx="708.7016807171773" cy="40.7274359358375" fill="#9dd93b" opacity="0.5"></circle><circle r="526.965485227434" cx="708.7016807171773" cy="40.7274359358375" fill="#fde725" opacity="0.5"></circle><circle r="263.8621480674665" cx="708.7016807171773" cy="40.7274359358375" fill="#fde725" opacity="0.5"></circle><circle r="105.40294019217136" cx="708.7016807171773" cy="40.7274359358375" fill="#95d840" opacity="0.5"></circle><circle r="377.9794456199926" cx="708.7016807171773" cy="40.7274359358375" fill="#1f9a8a" opacity="0.5"></circle><circle r="746.1687024021849" cx="708.7016807171773" cy="40.7274359358375" fill="#fde725" opacity="0.5"></circle><circle r="325.01114252016725" cx="708.7016807171773" cy="40.7274359358375" fill="#eae51a" opacity="0.5"></circle><circle r="232.8154174978354" cx="708.7016807171773" cy="40.7274359358375" fill="#81d34d" opacity="0.5"></circle><circle r="989.7802774314371" cx="708.7016807171773" cy="40.7274359358375" fill="#fde725" opacity="0.5"></circle><circle r="1075.882317637798" cx="708.7016807171773" cy="40.7274359358375" fill="#69cd5b" opacity="0.5"></circle><circle r="387.1294006140851" cx="708.7016807171773" cy="40.7274359358375" fill="#fde725" opacity="0.5"></circle><circle r="243.2900682210211" cx="708.7016807171773" cy="40.7274359358375" fill="#fde725" opacity="0.5"></circle><circle r="739.1876474293581" cx="708.7016807171773" cy="40.7274359358375" fill="#fde725" opacity="0.5"></circle><circle r="321.1426295041944" cx="708.7016807171773" cy="40.7274359358375" fill="#fde725" opacity="0.5"></circle><circle r="395.78623522829133" cx="708.7016807171773" cy="40.7274359358375" fill="#fde725" opacity="0.5"></circle><circle r="1026.9181641427076" cx="708.7016807171773" cy="40.7274359358375" fill="#8bd646" opacity="0.5"></circle><circle r="299.02920314974637" cx="708.7016807171773" cy="40.7274359358375" fill="#9bd93c" opacity="0.5"></circle><circle r="201.045471794185" cx="708.7016807171773" cy="40.7274359358375" fill="#fde725" opacity="0.5"></circle><circle r="1075.2018364536643" cx="708.7016807171773" cy="40.7274359358375" fill="#fde725" opacity="0.5"></circle><circle r="463.2918488707299" cx="708.7016807171773" cy="40.7274359358375" fill="#2ab07f" opacity="0.5"></circle><circle r="248.29904226899941" cx="708.7016807171773" cy="40.7274359358375" fill="#fde725" opacity="0.5"></circle><circle r="885.5415766024405" cx="708.7016807171773" cy="40.7274359358375" fill="#fde725" opacity="0.5"></circle><circle r="622.9408953335222" cx="708.7016807171773" cy="40.7274359358375" fill="#fde725" opacity="0.5"></circle><circle r="906.0367696462757" cx="708.7016807171773" cy="40.7274359358375" fill="#fde725" opacity="0.5"></circle><circle r="310.5352846447425" cx="708.7016807171773" cy="40.7274359358375" fill="#fde725" opacity="0.5"></circle><circle r="274.33118902744275" cx="708.7016807171773" cy="40.7274359358375" fill="#fde725" opacity="0.5"></circle><circle r="420.3512678674418" cx="708.7016807171773" cy="40.7274359358375" fill="#fde725" opacity="0.5"></circle><circle r="79.31316237250383" cx="708.7016807171773" cy="40.7274359358375" fill="#fde725" opacity="0.5"></circle><circle r="522.078508951878" cx="708.7016807171773" cy="40.7274359358375" fill="#fde725" opacity="0.5"></circle><circle r="383.2722027377105" cx="708.7016807171773" cy="40.7274359358375" fill="#fde725" opacity="0.5"></circle><circle r="119.82753202137744" cx="708.7016807171773" cy="40.7274359358375" fill="#fde725" opacity="0.5"></circle><circle r="114.20047983242337" cx="708.7016807171773" cy="40.7274359358375" fill="#fde725" opacity="0.5"></circle><circle r="452.86160947579094" cx="708.7016807171773" cy="40.7274359358375" fill="#fde725" opacity="0.5"></circle><circle r="840.3717842346881" cx="708.7016807171773" cy="40.7274359358375" fill="#fde725" opacity="0.5"></circle><circle r="157.20577436282994" cx="708.7016807171773" cy="40.7274359358375" fill="#89d548" opacity="0.5"></circle><circle r="330.6133926367627" cx="708.7016807171773" cy="40.7274359358375" fill="#34b679" opacity="0.5"></circle><circle r="86.07984128540132" cx="708.7016807171773" cy="40.7274359358375" fill="#fde725" opacity="0.5"></circle><circle r="487.58237777031513" cx="708.7016807171773" cy="40.7274359358375" fill="#fde725" opacity="0.5"></circle><circle r="8.372639404741156" cx="708.7016807171773" cy="40.7274359358375" fill="#b0dd2f" opacity="0.5"></circle><circle r="1033.8336144912166" cx="708.7016807171773" cy="40.7274359358375" fill="#fde725" opacity="0.5"></circle><circle r="240.0729023356014" cx="708.7016807171773" cy="40.7274359358375" fill="#22a884" opacity="0.5"></circle><circle r="718.0652121849783" cx="708.7016807171773" cy="40.7274359358375" fill="#2eb37c" opacity="0.5"></circle><circle r="808.37350528308" cx="708.7016807171773" cy="40.7274359358375" fill="#6ccd5a" opacity="0.5"></circle><circle r="891.4807245226111" cx="843.3399580162757" cy="348.87448420628897" fill="#98d83e" opacity="0.5"></circle><circle r="605.0733305292338" cx="843.3399580162757" cy="348.87448420628897" fill="#fde725" opacity="0.5"></circle><circle r="652.286055668751" cx="843.3399580162757" cy="348.87448420628897" fill="#fde725" opacity="0.5"></circle><circle r="337.67231421574735" cx="843.3399580162757" cy="348.87448420628897" fill="#fde725" opacity="0.5"></circle><circle r="626.9611124739678" cx="843.3399580162757" cy="348.87448420628897" fill="#addc30" opacity="0.5"></circle><circle r="383.70906575209756" cx="843.3399580162757" cy="348.87448420628897" fill="#fde725" opacity="0.5"></circle><circle r="19.587292640445696" cx="843.3399580162757" cy="348.87448420628897" fill="#20a486" opacity="0.5"></circle><circle r="217.57394886108125" cx="843.3399580162757" cy="348.87448420628897" fill="#aadc32" opacity="0.5"></circle><circle r="424.18515303426443" cx="843.3399580162757" cy="348.87448420628897" fill="#1f9a8a" opacity="0.5"></circle><circle r="531.1058040664927" cx="843.3399580162757" cy="348.87448420628897" fill="#fde725" opacity="0.5"></circle><circle r="14.18073665267443" cx="843.3399580162757" cy="348.87448420628897" fill="#89d548" opacity="0.5"></circle><circle r="771.0091909044189" cx="843.3399580162757" cy="348.87448420628897" fill="#40bd72" opacity="0.5"></circle><circle r="697.9240003418419" cx="843.3399580162757" cy="348.87448420628897" fill="#fde725" opacity="0.5"></circle><circle r="280.05453067977066" cx="843.3399580162757" cy="348.87448420628897" fill="#dde318" opacity="0.5"></circle><circle r="531.9117289147339" cx="843.3399580162757" cy="348.87448420628897" fill="#fde725" opacity="0.5"></circle><circle r="365.81244559820516" cx="843.3399580162757" cy="348.87448420628897" fill="#81d34d" opacity="0.5"></circle><circle r="866.1725993515303" cx="843.3399580162757" cy="348.87448420628897" fill="#fde725" opacity="0.5"></circle><circle r="888.8049697296183" cx="843.3399580162757" cy="348.87448420628897" fill="#27ad81" opacity="0.5"></circle><circle r="612.2295975470129" cx="843.3399580162757" cy="348.87448420628897" fill="#4ac16d" opacity="0.5"></circle><circle r="300.42798534626274" cx="843.3399580162757" cy="348.87448420628897" fill="#98d83e" opacity="0.5"></circle><circle r="206.42603022859402" cx="843.3399580162757" cy="348.87448420628897" fill="#fde725" opacity="0.5"></circle><circle r="497.3730784193962" cx="843.3399580162757" cy="348.87448420628897" fill="#c0df25" opacity="0.5"></circle><circle r="726.7428365543673" cx="843.3399580162757" cy="348.87448420628897" fill="#fde725" opacity="0.5"></circle><circle r="882.0817506733697" cx="843.3399580162757" cy="348.87448420628897" fill="#fde725" opacity="0.5"></circle><circle r="280.70146307585964" cx="843.3399580162757" cy="348.87448420628897" fill="#65cb5e" opacity="0.5"></circle><circle r="645.4200302138036" cx="843.3399580162757" cy="348.87448420628897" fill="#fde725" opacity="0.5"></circle><circle r="258.73770593513495" cx="843.3399580162757" cy="348.87448420628897" fill="#95d840" opacity="0.5"></circle><circle r="62.731420864175206" cx="843.3399580162757" cy="348.87448420628897" fill="#efe51c" opacity="0.5"></circle><circle r="374.4026883126826" cx="843.3399580162757" cy="348.87448420628897" fill="#a8db34" opacity="0.5"></circle><circle r="16.30794142086618" cx="843.3399580162757" cy="348.87448420628897" fill="#46c06f" opacity="0.5"></circle><circle r="470.64632757368156" cx="843.3399580162757" cy="348.87448420628897" fill="#fde725" opacity="0.5"></circle><circle r="589.1356121147898" cx="843.3399580162757" cy="348.87448420628897" fill="#a5db36" opacity="0.5"></circle><circle r="692.7512907171058" cx="843.3399580162757" cy="348.87448420628897" fill="#fde725" opacity="0.5"></circle><circle r="848.8625938614172" cx="843.3399580162757" cy="348.87448420628897" fill="#ece51b" opacity="0.5"></circle><circle r="408.6178064952462" cx="843.3399580162757" cy="348.87448420628897" fill="#fde725" opacity="0.5"></circle><circle r="561.2034457963597" cx="843.3399580162757" cy="348.87448420628897" fill="#b8de29" opacity="0.5"></circle><circle r="120.74442515931531" cx="404.69272027787474" cy="10.920885357730947" fill="#1f9e89" opacity="0.5"></circle><circle r="39.317016480340975" cx="404.69272027787474" cy="10.920885357730947" fill="#1e9c89" opacity="0.5"></circle><circle r="73.47815804572274" cx="404.69272027787474" cy="10.920885357730947" fill="#25ac82" opacity="0.5"></circle><circle r="95.88520139968479" cx="404.69272027787474" cy="10.920885357730947" fill="#25ab82" opacity="0.5"></circle><circle r="146.82382472835832" cx="404.69272027787474" cy="10.920885357730947" fill="#1e9b8a" opacity="0.5"></circle><circle r="109.826911273504" cx="404.69272027787474" cy="10.920885357730947" fill="#28ae80" opacity="0.5"></circle><circle r="171.41614585722522" cx="362.39734277684255" cy="15.189737787058789" fill="#27ad81" opacity="0.5"></circle><circle r="163.55682759485754" cx="362.39734277684255" cy="15.189737787058789" fill="#50c46a" opacity="0.5"></circle><circle r="163.39833450987769" cx="362.39734277684255" cy="15.189737787058789" fill="#32b67a" opacity="0.5"></circle><circle r="289.2705076331809" cx="362.39734277684255" cy="15.189737787058789" fill="#7ad151" opacity="0.5"></circle><circle r="51.56181042305619" cx="362.39734277684255" cy="15.189737787058789" fill="#4cc26c" opacity="0.5"></circle><circle r="207.5224894661624" cx="362.39734277684255" cy="15.189737787058789" fill="#3bbb75" opacity="0.5"></circle><circle r="48.010328554688606" cx="362.39734277684255" cy="15.189737787058789" fill="#7ad151" opacity="0.5"></circle><circle r="156.43259134303332" cx="362.39734277684255" cy="15.189737787058789" fill="#48c16e" opacity="0.5"></circle><circle r="347.60780068628395" cx="362.39734277684255" cy="15.189737787058789" fill="#2cb17e" opacity="0.5"></circle><circle r="322.4999735460282" cx="362.39734277684255" cy="15.189737787058789" fill="#1fa187" opacity="0.5"></circle><circle r="179.63025290708424" cx="362.39734277684255" cy="15.189737787058789" fill="#3dbc74" opacity="0.5"></circle><circle r="39.695004463113925" cx="362.39734277684255" cy="15.189737787058789" fill="#1f9f88" opacity="0.5"></circle><circle r="82.60623977314306" cx="362.39734277684255" cy="15.189737787058789" fill="#9bd93c" opacity="0.5"></circle><circle r="8.21525687849598" cx="362.39734277684255" cy="15.189737787058789" fill="#50c46a" opacity="0.5"></circle><circle r="23.920461235028046" cx="448.3414701728219" cy="241.51072891225533" fill="#1f988b" opacity="0.5"></circle><circle r="11.017315950260098" cx="448.3414701728219" cy="241.51072891225533" fill="#1f948c" opacity="0.5"></circle><circle r="42.844699400020104" cx="141.55409923192443" cy="86.38300015473332" fill="#25ab82" opacity="0.5"></circle><circle r="117.99801404875403" cx="141.55409923192443" cy="86.38300015473332" fill="#20928c" opacity="0.5"></circle><circle r="73.77004153972855" cx="141.55409923192443" cy="86.38300015473332" fill="#1e9d89" opacity="0.5"></circle><circle r="22.125865123513222" cx="141.55409923192443" cy="86.38300015473332" fill="#27ad81" opacity="0.5"></circle><circle r="80.26112568647659" cx="141.55409923192443" cy="86.38300015473332" fill="#1f988b" opacity="0.5"></circle><circle r="82.82904983562952" cx="141.55409923192443" cy="86.38300015473332" fill="#27ad81" opacity="0.5"></circle><circle r="99.99490250121124" cx="444.3934201619135" cy="300.48711029488817" fill="#1f958b" opacity="0.5"></circle><circle r="106.87281887403257" cx="444.3934201619135" cy="300.48711029488817" fill="#20928c" opacity="0.5"></circle><circle r="73.42060375851302" cx="444.3934201619135" cy="300.48711029488817" fill="#20928c" opacity="0.5"></circle><circle r="138.11300728530705" cx="444.3934201619135" cy="300.48711029488817" fill="#24aa83" opacity="0.5"></circle><circle r="126.10876938163543" cx="444.3934201619135" cy="300.48711029488817" fill="#2eb37c" opacity="0.5"></circle><circle r="99.38382821787735" cx="444.3934201619135" cy="300.48711029488817" fill="#22a785" opacity="0.5"></circle><circle r="32.521289925230256" cx="451.4443272651405" cy="428.87419759129375" fill="#20928c" opacity="0.5"></circle><circle r="16.538237572067814" cx="451.4443272651405" cy="428.87419759129375" fill="#1f988b" opacity="0.5"></circle><circle r="46.00325192426673" cx="760.8013738485389" cy="405.4595692084123" fill="#21918c" opacity="0.5"></circle><circle r="27.425434776669544" cx="760.8013738485389" cy="405.4595692084123" fill="#1f978b" opacity="0.5"></circle><circle r="48.43340459549279" cx="760.8013738485389" cy="405.4595692084123" fill="#1fa187" opacity="0.5"></circle><circle r="88.60292592271297" cx="760.8013738485389" cy="405.4595692084123" fill="#1e9b8a" opacity="0.5"></circle></svg>